<svg width="200" height="200" viewBox="0 0 200 200" fill="none" xmlns="http://www.w3.org/2000/svg">
<g clip-path="url(#clip0)">
<path d="M19.1758 168.482L17.4196 161.556C14.3059 160.237 11.1201 159.094 7.87764 158.133L7.65598 161.352L6.757 157.805C2.73573 156.656 3.8147e-06 156.15 3.8147e-06 156.15C3.8147e-06 156.15 3.6944 170.202 11.4457 180.945L20.4766 182.531L13.4607 183.543C14.4358 184.716 15.4836 185.827 16.598 186.868C27.8726 197.334 40.4306 202.135 44.6468 197.593C48.863 193.05 43.1409 180.884 31.8663 170.42C28.3711 167.176 23.9804 164.572 19.5851 162.523L19.1758 168.482Z" fill="#F2F2F2"/>
<path d="M35.8772 160.959L37.9541 154.123C35.9708 151.383 33.8347 148.758 31.5558 146.26L29.7022 148.901L30.7655 145.4C27.9168 142.338 25.8364 140.492 25.8364 140.492C25.8364 140.492 21.7365 154.43 22.818 167.633L29.729 173.659L23.199 170.899C23.4275 172.407 23.7506 173.9 24.1665 175.368C28.4086 190.154 36.6768 200.756 42.6339 199.047C48.591 197.338 49.9815 183.966 45.7393 169.179C44.4244 164.595 42.0112 160.096 39.3082 156.07L35.8772 160.959Z" fill="#F2F2F2"/>
<path d="M139.143 47.3801H138.047V17.3698C138.047 15.0888 137.598 12.8301 136.725 10.7227C135.852 8.61529 134.573 6.70046 132.96 5.08752C131.347 3.47458 129.432 2.19513 127.324 1.32221C125.217 0.449298 122.958 1.52588e-05 120.677 1.52588e-05H57.0943C52.4875 1.52588e-05 48.0694 1.83005 44.8119 5.08752C41.5545 8.345 39.7244 12.7631 39.7244 17.3698V182.012C39.7244 184.293 40.1737 186.551 41.0466 188.659C41.9195 190.766 43.199 192.681 44.8119 194.294C46.4249 195.907 48.3397 197.186 50.4471 198.059C52.5545 198.932 54.8132 199.381 57.0943 199.381H120.677C125.284 199.381 129.702 197.551 132.959 194.294C136.217 191.036 138.047 186.618 138.047 182.012V68.7421H139.142L139.143 47.3801Z" fill="#E6E6E6"/>
<path d="M121.378 4.51733H113.079C113.461 5.45314 113.606 6.46846 113.503 7.47383C113.4 8.47921 113.051 9.44378 112.488 10.2826C111.924 11.1214 111.162 11.8086 110.27 12.2838C109.378 12.759 108.383 13.0075 107.373 13.0075H70.9466C69.936 13.0074 68.9409 12.7589 68.049 12.2836C67.1571 11.8084 66.3958 11.1211 65.8321 10.2824C65.2683 9.44357 64.9195 8.47903 64.8164 7.4737C64.7133 6.46837 64.859 5.4531 65.2407 4.51733H57.4888C54.0486 4.51733 50.7492 5.88398 48.3165 8.31663C45.8839 10.7493 44.5172 14.0487 44.5172 17.489V181.892C44.5172 185.332 45.8839 188.631 48.3165 191.064C50.7492 193.497 54.0486 194.863 57.4888 194.863H121.378C124.818 194.863 128.118 193.497 130.55 191.064C132.983 188.631 134.35 185.332 134.35 181.892V17.4887C134.35 14.0484 132.983 10.7491 130.55 8.31654C128.118 5.88394 124.818 4.51733 121.378 4.51733Z" fill="white"/>
<path d="M81.2923 70.007C81.2921 68.8578 81.5946 67.7289 82.1694 66.7338C82.7441 65.7387 83.5709 64.9125 84.5664 64.3385C83.5714 63.7638 82.4426 63.4612 81.2935 63.4611C80.1445 63.4609 79.0156 63.7633 78.0205 64.3378C77.0253 64.9122 76.1989 65.7385 75.6243 66.7336C75.0498 67.7287 74.7473 68.8575 74.7473 70.0066C74.7473 71.1556 75.0498 72.2844 75.6243 73.2795C76.1989 74.2746 77.0253 75.1009 78.0205 75.6754C79.0156 76.2498 80.1445 76.5522 81.2935 76.5521C82.4426 76.5519 83.5714 76.2493 84.5664 75.6746C83.5709 75.1007 82.7442 74.2747 82.1694 73.2798C81.5947 72.2848 81.2922 71.156 81.2923 70.007Z" fill="#CCCCCC"/>
<path d="M89.5209 70.007C89.5207 68.8578 89.8231 67.7288 90.3979 66.7337C90.9727 65.7386 91.7994 64.9125 92.795 64.3385C91.8 63.7638 90.6712 63.4612 89.5221 63.4611C88.3731 63.4609 87.2442 63.7633 86.2491 64.3378C85.2539 64.9122 84.4275 65.7385 83.8529 66.7336C83.2784 67.7287 82.9759 68.8575 82.9759 70.0066C82.9759 71.1556 83.2784 72.2844 83.8529 73.2795C84.4275 74.2746 85.2539 75.1009 86.2491 75.6754C87.2442 76.2498 88.3731 76.5522 89.5221 76.5521C90.6712 76.5519 91.8 76.2493 92.795 75.6746C91.7995 75.1007 90.9728 74.2747 90.398 73.2798C89.8233 72.2848 89.5208 71.156 89.5209 70.007Z" fill="#CCCCCC"/>
<path d="M97.5626 76.5522C101.178 76.5522 104.108 73.6217 104.108 70.0067C104.108 66.3917 101.178 63.4612 97.5626 63.4612C93.9477 63.4612 91.0171 66.3917 91.0171 70.0067C91.0171 73.6217 93.9477 76.5522 97.5626 76.5522Z" fill="#50C2C9"/>
<path d="M108.502 90.4509H70.3531C69.9899 90.4505 69.6418 90.306 69.3849 90.0492C69.1281 89.7924 68.9837 89.4442 68.9833 89.0811V50.9324C68.9837 50.5692 69.1281 50.221 69.3849 49.9642C69.6418 49.7074 69.9899 49.5629 70.3531 49.5625H108.502C108.865 49.5629 109.213 49.7074 109.47 49.9642C109.727 50.221 109.871 50.5692 109.872 50.9324V89.0811C109.871 89.4442 109.727 89.7924 109.47 90.0492C109.213 90.306 108.865 90.4505 108.502 90.4509ZM70.3531 50.1108C70.1352 50.111 69.9263 50.1976 69.7722 50.3517C69.6181 50.5058 69.5315 50.7147 69.5313 50.9326V89.0813C69.5315 89.2992 69.6181 89.5081 69.7722 89.6622C69.9263 89.8163 70.1352 89.903 70.3531 89.9032H108.502C108.72 89.903 108.929 89.8163 109.083 89.6622C109.237 89.5081 109.323 89.2992 109.324 89.0813V50.9326C109.323 50.7147 109.237 50.5058 109.083 50.3517C108.929 50.1976 108.72 50.111 108.502 50.1108H70.3531Z" fill="#CCCCCC"/>
<path d="M117.02 119.694H58.5113V120.242H117.02V119.694Z" fill="#CCCCCC"/>
<path d="M60.359 116.272C61.3795 116.272 62.2067 115.445 62.2067 114.425C62.2067 113.404 61.3795 112.577 60.359 112.577C59.3385 112.577 58.5113 113.404 58.5113 114.425C58.5113 115.445 59.3385 116.272 60.359 116.272Z" fill="#50C2C9"/>
<path d="M117.02 138.17H58.5113V138.718H117.02V138.17Z" fill="#CCCCCC"/>
<path d="M60.359 134.749C61.3795 134.749 62.2067 133.922 62.2067 132.901C62.2067 131.881 61.3795 131.053 60.359 131.053C59.3385 131.053 58.5113 131.881 58.5113 132.901C58.5113 133.922 59.3385 134.749 60.359 134.749Z" fill="#50C2C9"/>
<path d="M115.949 159.21H97.4588C97.1394 159.21 96.8332 159.083 96.6073 158.857C96.3815 158.631 96.2544 158.325 96.2541 158.005V151.525C96.2544 151.205 96.3815 150.899 96.6073 150.673C96.8332 150.447 97.1394 150.32 97.4588 150.32H115.949C116.268 150.32 116.575 150.447 116.801 150.673C117.026 150.899 117.153 151.205 117.154 151.525V158.005C117.153 158.325 117.026 158.631 116.801 158.857C116.575 159.083 116.268 159.21 115.949 159.21Z" fill="#50C2C9"/>
<path d="M66.3862 116.272C67.4067 116.272 68.2339 115.445 68.2339 114.425C68.2339 113.404 67.4067 112.577 66.3862 112.577C65.3657 112.577 64.5385 113.404 64.5385 114.425C64.5385 115.445 65.3657 116.272 66.3862 116.272Z" fill="#50C2C9"/>
<path d="M72.4134 116.272C73.4339 116.272 74.2612 115.445 74.2612 114.425C74.2612 113.404 73.4339 112.577 72.4134 112.577C71.3929 112.577 70.5657 113.404 70.5657 114.425C70.5657 115.445 71.3929 116.272 72.4134 116.272Z" fill="#50C2C9"/>
<path d="M66.3862 134.749C67.4067 134.749 68.2339 133.922 68.2339 132.901C68.2339 131.881 67.4067 131.053 66.3862 131.053C65.3657 131.053 64.5385 131.881 64.5385 132.901C64.5385 133.922 65.3657 134.749 66.3862 134.749Z" fill="#50C2C9"/>
<path d="M72.4134 134.749C73.4339 134.749 74.2612 133.922 74.2612 132.901C74.2612 131.881 73.4339 131.053 72.4134 131.053C71.3929 131.053 70.5657 131.881 70.5657 132.901C70.5657 133.922 71.3929 134.749 72.4134 134.749Z" fill="#50C2C9"/>
<path d="M198.659 200H6.44648C6.03501 200 5.7017 199.854 5.7017 199.674C5.7017 199.494 6.03501 199.348 6.44648 199.348H198.659C199.07 199.348 199.403 199.494 199.403 199.674C199.403 199.854 199.07 200 198.659 200Z" fill="#3F3D56"/>
<path d="M151.17 131.034C151.301 131.094 151.427 131.164 151.547 131.244L163.555 126.12L163.983 122.957L168.781 122.927L168.498 130.182L152.649 134.373C152.616 134.483 152.576 134.591 152.529 134.696C152.3 135.185 151.932 135.596 151.47 135.876C151.009 136.156 150.475 136.294 149.935 136.271C149.396 136.249 148.875 136.068 148.438 135.75C148.001 135.433 147.668 134.994 147.48 134.487C147.292 133.981 147.258 133.431 147.382 132.905C147.505 132.38 147.782 131.902 148.176 131.533C148.57 131.164 149.065 130.92 149.597 130.831C150.13 130.742 150.677 130.813 151.17 131.034Z" fill="#FFB8B8"/>
<path d="M170.526 196.772H167.244L165.683 184.113L170.526 184.113L170.526 196.772Z" fill="#FFB8B8"/>
<path d="M164.899 195.835H171.229V199.82H160.914C160.914 198.763 161.334 197.749 162.081 197.002C162.829 196.255 163.842 195.835 164.899 195.835Z" fill="#2F2E41"/>
<path d="M183.29 195.845L180.024 196.167L177.229 183.722L182.05 183.247L183.29 195.845Z" fill="#FFB8B8"/>
<path d="M177.599 195.463L183.898 194.843L184.289 198.809L174.024 199.82C173.972 199.299 174.024 198.774 174.176 198.273C174.328 197.772 174.577 197.306 174.909 196.901C175.241 196.497 175.65 196.162 176.111 195.915C176.573 195.668 177.078 195.515 177.599 195.463Z" fill="#2F2E41"/>
<path d="M171.439 109.529C175.071 109.529 178.015 106.586 178.015 102.954C178.015 99.3228 175.071 96.379 171.439 96.379C167.808 96.379 164.864 99.3228 164.864 102.954C164.864 106.586 167.808 109.529 171.439 109.529Z" fill="#FFB8B8"/>
<path d="M166.51 194.212C166.228 194.213 165.955 194.114 165.739 193.933C165.523 193.752 165.377 193.5 165.328 193.223C163.63 183.792 158.077 152.958 157.944 152.103C157.941 152.084 157.94 152.064 157.94 152.044V149.745C157.94 149.661 157.966 149.58 158.015 149.512L158.748 148.484C158.783 148.435 158.829 148.394 158.882 148.365C158.935 148.336 158.994 148.319 159.054 148.317C163.236 148.121 176.933 147.546 177.595 148.373C178.259 149.204 178.025 151.721 177.971 152.217L177.973 152.269L184.127 191.621C184.175 191.935 184.097 192.255 183.911 192.512C183.725 192.77 183.445 192.943 183.132 192.996L179.289 193.629C179.003 193.675 178.709 193.617 178.462 193.465C178.216 193.313 178.031 193.077 177.943 192.801C176.755 189.002 172.769 176.225 171.387 171.281C171.379 171.249 171.359 171.222 171.332 171.204C171.305 171.186 171.272 171.179 171.24 171.184C171.208 171.188 171.178 171.204 171.157 171.229C171.136 171.254 171.125 171.285 171.125 171.318C171.194 176.031 171.361 188.056 171.418 192.209L171.425 192.656C171.427 192.959 171.316 193.252 171.113 193.477C170.91 193.702 170.63 193.842 170.329 193.871L166.623 194.207C166.585 194.211 166.547 194.212 166.51 194.212Z" fill="#2F2E41"/>
<path d="M167.267 112.115C166.119 112.797 165.432 114.051 165.038 115.326C164.309 117.688 163.87 120.129 163.731 122.597L163.314 129.986L158.16 149.574C162.627 153.354 165.205 152.495 171.219 149.403C177.233 146.311 177.92 150.434 177.92 150.434L179.123 133.767L180.841 115.554C180.455 115.09 180.019 114.67 179.539 114.303C177.951 113.068 176.103 112.209 174.135 111.792C172.167 111.375 170.13 111.41 168.177 111.895L167.267 112.115Z" fill="#50C2C9"/>
<path d="M165.592 134.99C165.731 135.042 165.865 135.105 165.994 135.178L177.866 129.236L178.063 126.017L182.961 125.679L183.223 133.017L167.357 138.264C167.228 138.82 166.932 139.323 166.51 139.707C166.087 140.09 165.558 140.336 164.993 140.412C164.427 140.487 163.852 140.389 163.344 140.129C162.835 139.87 162.418 139.462 162.147 138.96C161.877 138.457 161.765 137.885 161.828 137.318C161.891 136.75 162.125 136.216 162.499 135.785C162.873 135.354 163.369 135.047 163.921 134.905C164.474 134.763 165.057 134.793 165.592 134.99Z" fill="#FFB8B8"/>
<path d="M180.755 115.637C183.676 116.668 184.191 127.838 184.191 127.838C180.754 125.948 176.63 129.041 176.63 129.041C176.63 129.041 175.771 126.12 174.74 122.339C174.429 121.276 174.392 120.151 174.632 119.07C174.872 117.988 175.382 116.985 176.115 116.154C176.115 116.154 177.834 114.606 180.755 115.637Z" fill="#50C2C9"/>
<path d="M177.335 104.693C176.516 104.038 175.398 105.229 175.398 105.229L174.743 99.3304C174.743 99.3304 170.647 99.8211 168.025 99.1667C165.403 98.5122 164.994 101.543 164.994 101.543C164.859 100.319 164.831 99.0849 164.912 97.856C165.076 96.3814 167.206 94.9067 170.974 93.9235C174.743 92.9403 176.709 97.2006 176.709 97.2006C179.331 98.5112 178.154 105.349 177.335 104.693Z" fill="#2F2E41"/>
</g>
<defs>
<clipPath id="clip0">
<rect width="199.403" height="200" fill="white"/>
</clipPath>
</defs>
</svg>
